<svg width="220" height="82" viewBox="0 0 220 82" fill="none" xmlns="http://www.w3.org/2000/svg">
<path d="M165.496 56.1654C165.004 56.3574 164.514 56.5312 164.024 56.6869L164.011 56.6912C162.86 57.0745 161.65 57.3496 160.38 57.515C159.1 57.6818 157.669 57.7667 156.085 57.7667C153.023 57.7667 150.745 57.4249 149.181 56.8033C147.714 56.1645 146.691 55.078 146.089 53.4752C145.457 51.7905 145.112 49.3294 145.112 46.0267V16.7333V15.7333H144.112H139.947H138.947V16.7333V46.2C138.947 50.4732 139.414 53.9337 140.401 56.523L140.406 56.5366L140.412 56.55C141.497 59.1639 143.369 61.0337 145.985 62.1172C148.529 63.1708 151.916 63.6667 156.085 63.6667C159.028 63.6667 161.724 63.4316 164.169 62.9553M165.496 56.1654V16.7333V15.7333H166.496H170.66H171.66V16.7333V59.8933V60.536L171.076 60.803C168.971 61.7639 166.667 62.4797 164.169 62.9553M165.496 56.1654C165.829 56.0353 166.162 55.8968 166.496 55.7499V17.7333V16.7333H167.496H169.66H170.66V17.7333V53.7055L170.744 53.6639L170.66 53.8042V59.8933C169.235 60.544 167.71 61.0802 166.085 61.5018L165.496 62.4929V61.6486C165 61.7672 164.494 61.8755 163.98 61.9733M165.496 56.1654L141.336 56.1667C142.319 58.5356 143.996 60.2111 146.368 61.1933C148.739 62.1756 151.978 62.6667 156.085 62.6667C158.977 62.6667 161.608 62.4356 163.98 61.9733M164.169 62.9553C164.168 62.9554 164.167 62.9556 164.167 62.9557L163.98 61.9733M164.169 62.9553C164.17 62.9552 164.17 62.955 164.171 62.9549L163.98 61.9733M1.95435 60.24V60.91L2.57395 61.1648C4.60155 61.9988 6.68948 62.6246 8.83684 63.0416C10.9887 63.4596 13.2799 63.6667 15.708 63.6667C21.4074 63.6667 25.873 62.6451 28.9518 60.4501C32.1422 58.2174 33.7128 54.9172 33.7128 50.7067C33.7128 48.4247 33.2183 46.3952 32.1888 44.6566C31.158 42.858 29.4889 41.2796 27.2621 39.8955C25.039 38.4563 22.1047 37.0704 18.4847 35.729L18.4801 35.7273C15.5076 34.6423 13.1991 33.6274 11.533 32.6862C9.93094 31.6908 8.84679 30.7132 8.20411 29.7749C7.56602 28.8433 7.25121 27.8269 7.25121 26.7C7.25121 24.7517 8.06761 23.3479 9.78353 22.3685C11.5786 21.3438 14.4889 20.7667 18.6578 20.7667C20.1699 20.7667 21.6827 20.8785 23.1964 21.1026L23.2144 21.1052L23.2325 21.1072C24.0337 21.1962 24.9513 21.333 25.9867 21.5186V30.34V31.34H26.9867H31.2379H32.2379V30.34V17.6867V16.9057L31.4802 16.7165C29.5336 16.2303 27.7868 15.8539 26.2427 15.5896L25.9867 15.2553V15.5465C25.4105 15.4512 24.8633 15.372 24.3454 15.309C22.391 15.014 20.4082 14.8667 18.3975 14.8667C12.7734 14.8667 8.40353 15.7672 5.44298 17.7168C2.45516 19.6643 1 22.694 1 26.6133C1 28.7939 1.50083 30.7652 2.5281 32.4969C3.5569 34.2311 5.19284 35.7788 7.36166 37.163L7.37007 37.1683L7.37859 37.1735C9.54015 38.4931 12.4139 39.7906 15.9751 41.0737C18.9472 42.1586 21.2443 43.2275 22.8949 44.2717L22.9112 44.282L22.9278 44.2917C24.6477 45.2893 25.7746 46.2908 26.4088 47.2654L26.4248 47.29L26.4422 47.3136C27.1174 48.229 27.4616 49.2891 27.4616 50.5333C27.4616 52.9362 26.5419 54.659 24.7077 55.8474C22.8057 57.0798 19.8253 57.7667 15.6212 57.7667C13.4263 57.7667 11.3222 57.57 9.30736 57.1788C7.34498 56.7866 5.34818 56.1971 3.31646 55.4079L1.95435 54.8787V56.34V60.24ZM48.1539 17.74L47.5898 18.0132V18.64V80V81H48.5898H52.841H53.841V80V62.6042C54.3496 62.7284 54.8729 62.8442 55.4109 62.9519C57.5687 63.43 59.8653 63.6667 62.2978 63.6667C66.6899 63.6667 70.3524 62.8675 73.2147 61.1893L73.2216 61.1853L73.2284 61.1811C76.133 59.415 78.1698 56.598 79.3845 52.8406C80.6462 49.1157 81.257 44.2884 81.257 38.4C81.257 32.6931 80.6769 28.1169 79.467 24.7269C78.3029 21.2447 76.3085 18.682 73.447 17.1549C70.6425 15.6008 66.9578 14.8667 62.4713 14.8667C56.9245 14.8667 52.1399 15.8095 48.1539 17.74ZM57.0281 57.3526C55.933 57.1126 54.8708 56.8099 53.841 56.4449V22.2209C54.8671 21.8487 55.9253 21.5605 57.016 21.3562L57.0276 21.3541L57.0392 21.3516C58.8754 20.9625 60.8011 20.7667 62.8183 20.7667C66.1438 20.7667 68.606 21.3049 70.3016 22.2802C71.9235 23.213 73.1251 24.8639 73.8274 27.4002L73.83 27.4097L73.8328 27.4191C74.6023 29.9997 75.0057 33.6442 75.0057 38.4C75.0057 43.4414 74.5741 47.38 73.7436 50.2559L73.7435 50.2559L73.7401 50.2684C72.9762 53.048 71.7018 54.9512 69.9885 56.1124C68.24 57.2394 65.7942 57.8533 62.558 57.8533C60.7161 57.8533 58.873 57.6866 57.0281 57.3526ZM196.772 60.3508L196.782 60.3602C199.198 62.6434 203.042 63.6667 208.053 63.6667C209.714 63.6667 211.32 63.5487 212.872 63.3112C214.432 63.1302 215.99 62.8001 217.544 62.3225L218.25 62.1055V61.3667V57.38V55.9528L216.909 56.4401C215.7 56.879 214.403 57.2106 213.014 57.4325L213.008 57.4336C211.68 57.6547 210.26 57.7667 208.748 57.7667C204.996 57.7667 202.719 57.0449 201.566 55.8993C200.403 54.6852 199.684 52.3673 199.684 48.6267V21.6333H217.25H218.25V20.6333V16.7333V15.7333H217.25H199.684V2V1H198.684H194.346H193.346V2V15.7333H182.199H181.199V16.7333V20.6333V21.6333H182.199H193.346V49.4067C193.346 54.3045 194.402 58.0487 196.772 60.3508Z" fill="#FFCF55" stroke="#FFCF55" stroke-width="2"/>
<path d="M127.702 34.7836L127.693 34.7671L127.683 34.7509L113.621 10.5653C113.253 9.93178 112.724 9.40763 112.087 9.04529C111.451 8.68384 110.73 8.49556 109.998 8.50008C108.521 8.50131 107.152 9.28218 106.41 10.5571L93.6693 32.403L93.6693 32.403L93.6642 32.4119L92.4415 34.5588L92.4302 34.5786L92.4199 34.5989C91.0204 37.3391 90.2778 40.3622 90.25 43.4339H90.25L90.25 43.4453C90.2625 48.634 92.3498 53.6048 96.053 57.2692C99.7553 60.9336 104.771 62.9932 110.001 63H110.001C114.475 63.005 118.82 61.5025 122.319 58.7373C125.82 55.9714 128.268 52.1075 129.26 47.7784L129.26 47.7783C130.252 43.449 129.727 38.9148 127.774 34.9208L127.766 34.9053L127.758 34.8902L127.702 34.7836ZM119.848 53.1847L119.32 53.7037C116.77 55.9688 113.457 57.2334 110.01 57.2372C106.31 57.2413 102.761 55.7911 100.14 53.2082C97.5227 50.6272 96.0458 47.1255 96.0304 43.4707C96.0535 41.3185 96.5701 39.199 97.5415 37.2726L110.001 15.8649L121.298 35.3123L121.299 35.3151L122.608 37.5519C123.835 40.1134 124.232 42.9888 123.743 45.7824L123.743 45.7825C123.252 48.5888 121.891 51.1758 119.848 53.1847Z" fill="#00FFB1" stroke="#00FFB1" stroke-width="2"/>
</svg>
